<svg id="Слой_1" data-name="Слой 1" xmlns="http://www.w3.org/2000/svg" viewBox="0 0 622.99 216.56"><defs><style>.cls-1,.cls-2,.cls-5,.cls-6,.cls-7,.cls-8{fill:none;}.cls-2,.cls-4,.cls-5,.cls-6{stroke:#fff;}.cls-2,.cls-4,.cls-5,.cls-6,.cls-7,.cls-8{stroke-miterlimit:10;}.cls-2,.cls-8{stroke-width:6px;}.cls-3,.cls-4{fill:#fff;}.cls-4,.cls-6,.cls-7{stroke-width:3px;}.cls-5{stroke-width:2px;}.cls-7,.cls-8{stroke:#f9f9f9;}</style></defs><title>logo4</title><line class="cls-1" y1="73.52" x2="109" y2="73.52"/><line class="cls-1" x1="40" y1="48.52" x2="106.5" y2="48.52"/><path class="cls-2" d="M194.08,462.56a12.17,12.17,0,0,1-12,12.33h-51.5a12.17,12.17,0,0,1-12-12.33V365a12.17,12.17,0,0,1,12-12.32h51.5a12.16,12.16,0,0,1,12,12.32Z" transform="translate(-94.33 -292.87)"/><path class="cls-2" d="M205.33,450.18a12.17,12.17,0,0,1-12,12.33h-51.5a12.17,12.17,0,0,1-12-12.33V352.59a12.17,12.17,0,0,1,12-12.33h51.5a12.17,12.17,0,0,1,12,12.33Z" transform="translate(-94.33 -292.87)"/><path class="cls-3" d="M280.84,297.4v84.81H270.32V306.59H243.68v25.67c0,18.37-.71,38.88-12.06,46.93a23.32,23.32,0,0,1-12.31,4L218,374.41a18.11,18.11,0,0,0,8.48-4.53c6.45-6.67,7.05-23.15,7.05-36.74V297.4Z" transform="translate(-94.33 -292.87)"/><path class="cls-3" d="M308.19,321.31V347c0,9.69-.12,15.73-.6,24.41l.36.13c3.46-7.43,5.5-11.7,9.32-18.75l18-31.46h12.3v60.9h-10V356.42c0-9.94.24-15.1.71-24.92h-.36c-3.7,7.8-6.21,12.71-9.55,18.88-5.5,9.44-11.83,21.14-18,31.83H298.27v-60.9Z" transform="translate(-94.33 -292.87)"/><path class="cls-3" d="M399.09,292.87v27.31c16.85,1.25,29,12.45,29,31.46,0,20-12.9,30.57-29,31.71v23.78h-9.55V383.47c-16.73-1.13-29-12.2-29-31.2,0-20.14,12.78-30.71,29-32.09V292.87Zm-9.55,34.86c-11.71,1.63-18.64,11.7-18.64,24.16s7.17,22.4,18.64,23.91Zm9.55,48.07c11.59-1.64,18.64-11.71,18.64-24.16s-7.05-22.15-18.64-23.91Z" transform="translate(-94.33 -292.87)"/><path class="cls-3" d="M479.73,321.31v8.81h-18v52.09H451.3V330.12h-18v-8.81Z" transform="translate(-94.33 -292.87)"/><path class="cls-3" d="M238.19,423.23v37.63h3.22L269,423.23h12.54l-30.46,38.89c13.26,1.89,18.4,10.44,22.58,21.9,3,8.68,5.25,16.48,8.84,24H271.28c-2.87-5.79-5.14-13.34-7.29-20-3.7-11.2-8.84-18.87-22.46-18.87h-3.34v38.88H227.91V423.23Z" transform="translate(-94.33 -292.87)"/><path class="cls-3" d="M344.27,477.09c0,22.53-14.82,32.34-28.79,32.34-15.65,0-27.72-12.08-27.72-31.33,0-20.39,12.66-32.34,28.67-32.34C333,445.76,344.27,458.47,344.27,477.09Zm-45.88.63c0,13.34,7.29,23.41,17.57,23.41,10,0,17.56-9.94,17.56-23.66,0-10.32-4.9-23.41-17.33-23.41S298.39,466.15,298.39,477.72Z" transform="translate(-94.33 -292.87)"/><path class="cls-3" d="M358.12,447.14H371l10.52,30.71c1.43,4.53,3.94,11.95,5.25,16.74H387c1.32-4.53,4.54-14.22,6.81-20.89l9.32-26.56h13l4.06,60.91h-10L408.89,479c-.36-6.54-.83-14.34-1.07-21.77h-.36c-1.55,5.54-3.11,10.45-6.33,19.76L390,507.67h-7.65L372.1,477.6c-1.79-5.79-4.3-14.6-5.74-20.26h-.47c-.24,7.17-.6,15.22-1,21.89l-1.43,28.82h-9.68Z" transform="translate(-94.33 -292.87)"/><path class="cls-3" d="M481.4,447.14v60.91H470.89V456H444v52.1H433.62V447.14Z" transform="translate(-94.33 -292.87)"/><path class="cls-3" d="M542.32,447.14v60.91H531.93V455.83H512.1v15.85c0,17.12-1.55,28.57-9.08,33.73-2.87,2.39-6.09,3.77-11.47,3.77l-1.07-8.68a12.66,12.66,0,0,0,5.73-2.52c5.38-4.15,6-12.71,6-26.3V447.14Z" transform="translate(-94.33 -292.87)"/><path class="cls-3" d="M565.38,479.61c.23,15,9.31,21.14,19.83,21.14,7.52,0,12.06-1.38,16-3.14l1.79,7.92c-3.7,1.77-10,3.78-19.23,3.78-17.8,0-28.43-12.33-28.43-30.71s10.27-32.84,27.12-32.84c18.87,0,23.89,17.49,23.89,28.69a43.64,43.64,0,0,1-.36,5.16Zm30.82-7.93c.12-7-2.75-18-14.58-18-10.63,0-15.29,10.32-16.13,18Z" transform="translate(-94.33 -292.87)"/><path class="cls-3" d="M629.76,447.14v26.43h2.51L654,447.14h12.78l-25.2,27.56c9.32,1,14.93,7.55,19.47,18.5,1.55,4,3.58,9.94,6.21,14.85h-11a82.9,82.9,0,0,1-5.37-12.46c-3.95-9.81-9.32-14.34-19.12-14.34h-2v26.8H619.37V447.14Z" transform="translate(-94.33 -292.87)"/><path class="cls-3" d="M717.08,505.79c-2.74,1.51-8.83,3.52-16.6,3.52-17.44,0-28.79-12.46-28.79-31.08s12.19-32.34,31.06-32.34A33.61,33.61,0,0,1,717.32,449l-2.39,8.56c-2.5-1.51-6.45-2.9-12.18-2.9-13.26,0-20.43,10.32-20.43,23,0,14.1,8.6,22.78,20.07,22.78a28.66,28.66,0,0,0,12.9-3Z" transform="translate(-94.33 -292.87)"/><line class="cls-4" x1="36.5" y1="68.68" x2="65.33" y2="68.68"/><line class="cls-5" x1="65.33" y1="68.68" x2="36.5" y2="99.52"/><line class="cls-4" x1="70.13" y1="68.68" x2="98.96" y2="68.68"/><line class="cls-5" x1="64.33" y1="100.62" x2="35.5" y2="131.45"/><line class="cls-6" x1="64.64" y1="69.42" x2="64.33" y2="162.14"/><line class="cls-5" x1="65.33" y1="130.77" x2="36.5" y2="161.6"/><line class="cls-7" x1="70.6" y1="69.68" x2="70.29" y2="162.39"/><line class="cls-4" x1="36.5" y1="162.14" x2="65.33" y2="162.14"/><line class="cls-4" x1="70.13" y1="162.39" x2="98.96" y2="162.39"/><line class="cls-5" x1="99.12" y1="131.45" x2="70.29" y2="162.28"/><line class="cls-5" x1="99.12" y1="100.62" x2="70.29" y2="131.45"/><line class="cls-5" x1="98.96" y1="69.68" x2="70.13" y2="100.51"/><line class="cls-8" x1="62" y1="6.69" x2="61.69" y2="48.52"/><line class="cls-8" x1="73.56" y1="6.69" x2="73.25" y2="48.52"/><line class="cls-2" x1="62.15" y1="182.02" x2="61.85" y2="213.35"/><line class="cls-2" x1="73.4" y1="182.02" x2="73.1" y2="213.35"/></svg>